<?xml version="1.0" encoding="utf-8"?>
<!-- Svg Vector Icons : http://www.onlinewebfonts.com/icon -->
<!DOCTYPE svg PUBLIC "-//W3C//DTD SVG 1.1//EN" "http://www.w3.org/Graphics/SVG/1.1/DTD/svg11.dtd">
<svg version="1.1" xmlns="http://www.w3.org/2000/svg" xmlns:xlink="http://www.w3.org/1999/xlink" x="0px" y="0px" viewBox="0 0 256 256" enable-background="new 0 0 256 256" xml:space="preserve">
<metadata> Svg Vector Icons : http://www.onlinewebfonts.com/icon </metadata>
<g><g><path fill="#000000" d="M45.8,212.5H34.3V25.8c0-8.6,7-15.6,15.6-15.6h155.5c8.6,0,15.6,7,15.6,15.6v184h-11.6v-184c0-2.2-1.8-4-4-4H49.8c-2.2,0-4,1.8-4,4L45.8,212.5L45.8,212.5z"/><path fill="#000000" d="M224.6,245.8H31.4c-11.8,0-21.4-9.6-21.4-21.5v-39.2c0-3.2,2.6-5.8,5.8-5.8c3.2,0,5.8,2.6,5.8,5.8v39.2c0,5.5,4.4,9.9,9.9,9.9h193.1c5.4,0,9.9-4.5,9.9-9.9v-39.2c0-3.2,2.6-5.8,5.8-5.8s5.8,2.6,5.8,5.8v39.2C246,236.2,236.4,245.8,224.6,245.8z"/><path fill="#000000" d="M131,218.2c-3.2,0-5.8-2.6-5.8-5.8v-71.1c0-3.2,2.6-5.8,5.8-5.8c3.2,0,5.8,2.6,5.8,5.8v71.1C136.8,215.7,134.2,218.2,131,218.2z"/><path fill="#000000" d="M131,218.2c-1.5,0-3-0.6-4.1-1.7l-42-42c-2.3-2.3-2.3-5.9,0-8.2c2.3-2.3,5.9-2.3,8.2,0l37.9,37.9l37.9-38c2.3-2.3,5.9-2.3,8.2,0c2.3,2.3,2.3,5.9,0,8.2l-42,42C134,217.7,132.5,218.2,131,218.2z"/><path fill="#000000" d="M173.9,55.3H74.1c-3.2,0-5.8-2.6-5.8-5.8c0-3.2,2.6-5.8,5.8-5.8h99.8c3.2,0,5.8,2.6,5.8,5.8C179.7,52.8,177.1,55.3,173.9,55.3z"/><path fill="#000000" d="M161.4,88.4H74.1c-3.2,0-5.8-2.6-5.8-5.8c0-3.2,2.6-5.8,5.8-5.8h87.2c3.2,0,5.8,2.6,5.8,5.8S164.6,88.4,161.4,88.4z"/><path fill="#000000" d="M133.7,120.7H74.1c-3.2,0-5.8-2.6-5.8-5.8c0-3.2,2.6-5.8,5.8-5.8h59.5c3.2,0,5.8,2.6,5.8,5.8C139.4,118.2,136.8,120.7,133.7,120.7z"/></g></g>
</svg>